PathFileType	4	(X/Y/Z)	Kaydara	
DataRate	CameraRate	NumFrames	NumMarkers	Units	OrigDataRate	OrigDataStartFrame	OrigNumFrames	
60.00	60.00	4	74	mm	60.00	652	200	
Frame#	Time	Z_lasi			Z_rasi			Z_rpsi			Z_lpsi			Z_fneck			Z_bneck			Z_fhead			Z_rhead			Z_lhead			Z_rshld			Z_relbtop			Z_relbext			Z_relblow			Z_rwrext			Z_rwrtop			Z_rwrlow			Z_lshld			Z_lelbext			Z_lelblow			Z_lelbtop			Z_lwrext			Z_lwrtop			Z_lwrlow			Z_rtopleg			Z_ltopleg			Z_rkneefr			Z_rkneebk			Z_rkneeis			Z_lkneefr			Z_lknssbk			Z_lkneeis			Z_rankfr			Z_rankis			Z_rankbk			Z_lankfr			Z_lankbk			Z_lankis			A_lasi			A_rasi			A_rpsi			A_lpsi			A_fneck			A_bneck			A_fhead			A_rhead			A_lhead			A_rshld			A_relbtop			A_relbext			A_relblow			A_rwrext			A_rwrtop			A_rwrlow			A_lshld			A_lelbext			A_lelblow			A_lelbtop			A_lwrext			A_lwrtop			A_lwrlow			A_rtopleg			A_ltopleg			A_rkneefr			A_rkneebk			A_rkneeis			A_lkneefr			A_lknssbk			A_lkneeis			A_rankfr			A_rankis			A_rankbk			A_lankfr			A_lankbk			A_lankis			
		X1	Y1	Z1	X2	Y2	Z2	X3	Y3	Z3	X4	Y4	Z4	X5	Y5	Z5	X6	Y6	Z6	X7	Y7	Z7	X8	Y8	Z8	X9	Y9	Z9	X10	Y10	Z10	X11	Y11	Z11	X12	Y12	Z12	X13	Y13	Z13	X14	Y14	Z14	X15	Y15	Z15	X16	Y16	Z16	X17	Y17	Z17	X18	Y18	Z18	X19	Y19	Z19	X20	Y20	Z20	X21	Y21	Z21	X22	Y22	Z22	X23	Y23	Z23	X24	Y24	Z24	X25	Y25	Z25	X26	Y26	Z26	X27	Y27	Z27	X28	Y28	Z28	X29	Y29	Z29	X30	Y30	Z30	X31	Y31	Z31	X32	Y32	Z32	X33	Y33	Z33	X34	Y34	Z34	X35	Y35	Z35	X36	Y36	Z36	X37	Y37	Z37	X38	Y38	Z38	X39	Y39	Z39	X40	Y40	Z40	X41	Y41	Z41	X42	Y42	Z42	X43	Y43	Z43	X44	Y44	Z44	X45	Y45	Z45	X46	Y46	Z46	X47	Y47	Z47	X48	Y48	Z48	X49	Y49	Z49	X50	Y50	Z50	X51	Y51	Z51	X52	Y52	Z52	X53	Y53	Z53	X54	Y54	Z54	X55	Y55	Z55	X56	Y56	Z56	X57	Y57	Z57	X58	Y58	Z58	X59	Y59	Z59	X60	Y60	Z60	X61	Y61	Z61	X62	Y62	Z62	X63	Y63	Z63	X64	Y64	Z64	X65	Y65	Z65	X66	Y66	Z66	X67	Y67	Z67	X68	Y68	Z68	X69	Y69	Z69	X70	Y70	Z70	X71	Y71	Z71	X72	Y72	Z72	X73	Y73	Z73	X74	Y74	Z74	

151	10.850	-247.36217	1086.20773	535.29953	-288.02771	1092.95708	332.44274	-116.37676	1100.06592	258.08903	-60.15311	1086.04584	496.56017	-239.04751	1445.46555	387.93846	-124.84224	1500.17227	415.45326	-231.77074	1651.26450	272.88559	-85.12180	1612.93839	346.31351	-192.96329	1653.38745	438.78891	-181.94401	1420.98602	200.14753	-143.66797	1091.54846	146.02535	-123.01213	1079.24744	202.44051	-212.62367	1106.68739	177.80901	-249.54142	868.61275	167.97350	-284.15487	886.72234	192.95813	-263.73875	884.35257	231.01362	-135.47832	1440.11520	596.98086	-105.26104	1118.74817	580.62351	-159.27427	1138.02399	651.61995	-91.00697	1133.18146	649.76868	-238.17066	885.41557	639.81056	-217.05288	874.24011	681.12541	-174.16824	868.10493	661.00792	-183.92994	914.72809	218.35873	-179.83284	896.07185	582.86911	-249.12994	415.97107	326.83739	-177.85120	440.62061	276.77502	-189.79710	437.08397	401.72794	-275.34426	454.62555	608.92204	-170.63272	480.25822	587.09152	-271.39774	451.35242	513.46546	-197.78812	174.00637	341.66977	-176.71080	179.00639	404.92397	-120.19600	168.02385	338.47847	-183.47647	175.62670	617.11067	-134.47659	179.27048	552.36835	-213.37299	179.01295	550.51250	-999.56245	1039.07440	468.91121	-985.65193	1041.71761	628.30494	-1142.73834	1037.66975	653.52043	-1123.50945	1045.16167	470.77209	-1044.93042	1379.47388	572.62276	-1181.71402	1415.19028	569.32247	-981.94321	1589.89304	575.40630	-1120.37537	1555.53650	672.29309	-1135.22217	1558.65021	509.87240	-1119.88319	1364.52057	747.67578	-1087.14317	1069.74091	782.68639	-1150.67970	1060.93750	771.21246	-1093.37822	1060.18433	725.21912	-1046.58073	824.52179	795.47760	-1007.18796	839.09081	776.87912	-1024.22798	838.96538	740.30731	-1076.32591	1373.19183	396.12141	-1116.72592	1057.43652	383.80951	-1045.82726	1067.09610	392.08492	-1080.67230	1063.35228	350.39700	-1008.80112	842.33322	387.18742	-1026.43654	839.53461	349.76501	-982.79587	852.67776	345.09365	-1081.54556	875.74089	731.06476	-1055.52116	891.24771	393.76110	-1033.44284	452.43385	636.84792	-1140.14999	484.68567	685.06157	-1124.21143	485.27668	566.86897	-1019.10591	465.94292	508.13084	-1105.26207	479.18465	412.90375	-1126.31706	478.00022	536.62533	-1100.05295	164.88998	659.88800	-1135.93506	161.40188	595.55550	-1180.75333	151.98639	665.67467	-1070.09689	166.27796	457.69547	-1130.56519	166.92751	421.58947	-1129.35333	172.55219	510.86273 
152	10.867	-246.60936	1086.01822	536.19587	-287.86371	1092.22336	333.26164	-116.35462	1100.61691	258.71561	-59.42986	1087.01271	497.02744	-239.82594	1445.22217	387.00939	-126.11900	1501.05499	414.52320	-234.91970	1651.04523	271.79127	-87.76158	1614.59091	345.12470	-196.12160	1653.55316	437.63939	-181.96949	1420.32196	199.40559	-141.64653	1090.51010	148.35793	-120.65863	1078.93448	204.63346	-210.50680	1105.70877	180.57722	-247.19067	867.85606	171.57164	-282.64187	886.32072	195.25738	-264.97265	885.45448	234.92832	-136.42863	1442.40417	595.84606	-105.64159	1120.65125	586.22753	-161.32557	1141.55685	655.20767	-92.96269	1136.82175	655.46249	-238.24724	888.44048	648.76671	-219.32505	878.11989	691.08185	-175.31931	872.18674	674.11339	-183.07026	915.07523	219.18447	-177.61507	895.88760	583.61778	-247.06614	416.41823	327.81876	-175.95934	440.88978	277.33469	-187.26009	437.25273	402.20432	-273.64880	454.50748	609.67010	-169.31904	479.91135	587.89257	-270.21011	451.54049	514.18221	-197.35329	174.22901	342.08405	-176.07088	179.12411	405.30235	-119.85920	167.76758	338.54988	-182.66651	175.34342	617.34039	-133.97703	178.99105	552.67365	-212.79652	178.99996	550.85258	-999.37119	1039.15382	468.91743	-985.50003	1041.92955	628.34583	-1142.61452	1037.53807	653.40263	-1123.33084	1045.05226	470.93716	-1045.58632	1379.35867	572.33105	-1182.49817	1415.13138	569.27788	-982.86064	1589.59198	575.21313	-1120.79857	1555.47043	672.13303	-1136.20529	1558.59665	509.80499	-1120.69191	1364.38644	747.53189	-1087.52037	1069.66896	782.66739	-1151.04698	1060.80482	770.88501	-1093.61435	1060.04211	725.19318	-1046.52969	824.53423	795.46402	-1007.22336	839.17397	776.97906	-1024.20242	838.97018	740.34447	-1077.07443	1373.18420	395.86403	-1116.66000	1057.37625	383.93341	-1045.73318	1067.15103	391.91788	-1080.77072	1063.28873	350.32860	-1008.69308	842.38564	386.79893	-1026.36154	839.56116	349.54716	-982.65465	852.75620	344.53453	-1081.30592	875.58456	730.77705	-1055.14694	891.24207	393.80882	-1033.31017	452.42508	636.98586	-1140.07286	484.69978	685.12383	-1124.01382	485.27279	566.93066	-1018.72421	465.86876	508.05569	-1104.96521	479.15627	412.83684	-1126.14723	478.03715	536.52824	-1100.02464	164.89109	659.92508	-1135.84023	161.44934	595.58033	-1180.72830	152.03601	665.69298	-1070.05814	166.22114	457.74567	-1130.47935	166.93916	421.53385	-1129.33388	172.55188	510.80841 
153	10.883	-245.67623	1085.75974	537.17892	-287.29017	1091.61217	334.43367	-116.07944	1101.15593	259.62570	-58.71284	1087.99049	497.86343	-240.82476	1444.91028	386.22871	-127.60139	1501.84647	413.64906	-238.58452	1650.73456	270.71552	-90.57611	1615.81497	343.27137	-198.79240	1653.62091	436.33343	-181.96623	1419.57153	198.84081	-139.46408	1089.75983	150.36735	-119.35622	1078.49442	206.90512	-208.32964	1104.77921	182.63132	-245.30895	867.36511	172.31655	-281.41977	886.09749	194.20128	-265.83235	885.94429	234.74705	-137.88225	1444.48105	594.96834	-106.31598	1122.65030	592.10533	-163.50723	1145.17990	659.08020	-95.19656	1140.67192	661.13434	-238.32119	891.42082	657.32689	-221.33392	882.18002	700.58723	-176.45523	876.60820	685.98831	-182.07172	915.49133	220.35336	-175.05840	895.63469	584.57134	-245.50385	416.99829	329.03702	-174.60888	441.24260	278.13505	-185.10986	437.51671	403.16849	-271.75020	454.50836	610.41431	-167.09488	479.62559	588.08857	-268.62890	451.73912	515.03914	-197.02497	174.41534	342.71530	-175.45771	179.24498	405.81390	-119.69704	167.57202	338.70895	-181.73986	175.24847	617.74570	-133.23569	178.76236	552.90630	-212.13610	179.06916	551.30661	-999.25591	1039.32281	468.94760	-985.51193	1042.17407	628.38902	-1142.61063	1037.36244	653.31169	-1122.99011	1045.33333	470.72609	-1046.09558	1379.23569	572.07977	-1183.21289	1415.02716	569.10976	-983.59085	1589.34906	574.59366	-1121.43669	1555.29816	671.94572	-1137.14340	1558.52219	509.64115	-1121.56601	1364.37500	747.33406	-1087.89360	1069.65500	782.57164	-1151.30844	1060.70168	770.62241	-1093.96385	1059.99344	725.05089	-1046.65337	824.52461	795.40169	-1007.33650	839.25476	777.03171	-1024.16512	839.04640	740.32196	-1077.75261	1373.28720	395.68504	-1116.64078	1057.34924	383.95298	-1045.68817	1067.20108	391.69109	-1080.82664	1063.30696	350.20924	-1008.74565	842.44339	386.58337	-1026.33278	839.63715	349.39091	-982.78854	852.79579	344.25964	-1081.09657	875.59792	730.74966	-1054.80354	891.24107	393.77220	-1033.01941	452.44034	637.14733	-1139.48563	484.52225	684.90776	-1123.66035	485.33352	566.98437	-1018.63808	465.89928	508.21796	-1104.60091	479.17122	412.84233	-1125.79353	478.05531	536.46088	-1099.96422	164.91018	659.99809	-1135.78255	161.46578	595.66517	-1180.91904	152.17321	665.91469	-1069.96292	166.16779	457.73129	-1130.36079	166.97357	421.50311	-1129.25827	172.57153	510.79300 
154	10.900	-244.58654	1085.43701	538.25573	-286.53130	1091.00151	335.55004	-115.34585	1101.64696	260.68712	-57.74881	1088.91762	498.87463	-242.09433	1444.55566	385.70816	-129.15606	1502.57751	412.74910	-242.68791	1650.00717	269.73154	-93.68640	1616.45889	340.75489	-201.19930	1653.81073	434.90711	-181.81650	1418.83728	198.53708	-137.57331	1089.26918	151.50095	-118.78555	1077.96700	208.48520	-206.85825	1104.28032	182.39925	-243.76564	866.89278	171.26699	-280.49379	885.50385	192.19038	-265.75726	885.52696	233.15599	-139.67813	1446.45828	594.16870	-106.87414	1124.94652	597.51049	-165.64926	1148.46008	663.03421	-97.13042	1144.31496	666.43837	-238.48959	894.31587	665.16304	-223.03730	886.15211	709.20898	-177.71269	880.83900	696.74271	-180.34658	916.04630	221.42302	-172.57710	895.55023	585.77408	-244.23159	417.36183	330.48466	-173.50508	441.42410	279.00608	-182.97735	437.53922	403.84224	-269.61910	454.59152	611.53881	-165.10132	479.23840	588.96290	-266.67477	451.94660	515.98801	-196.93754	174.64977	343.41572	-175.03889	179.30922	406.46587	-119.79855	167.41381	339.00566	-180.89071	175.09762	618.28342	-132.31847	178.46003	553.19721	-211.25443	179.06506	551.84250	-999.20692	1039.49188	468.96568	-985.56511	1042.40479	628.46584	-1142.69455	1037.19490	653.23380	-1123.29826	1044.69124	470.69962	-1046.61186	1379.08737	571.81335	-1183.83286	1414.80194	568.98994	-984.44901	1589.15680	574.06986	-1121.96724	1555.16159	671.67419	-1138.04482	1558.33740	509.40594	-1122.26563	1364.36783	746.98616	-1088.39363	1069.70062	782.46819	-1151.59546	1060.65468	770.32806	-1094.30016	1060.06981	724.94263	-1047.02904	824.67834	795.34988	-1007.45270	839.33037	777.05132	-1024.29710	839.05060	740.35286	-1078.14606	1373.31787	395.50800	-1116.63742	1057.39830	383.68729	-1045.69542	1067.28050	391.47690	-1080.87685	1063.38737	350.02094	-1008.69545	842.53578	386.24973	-1026.25504	839.69704	349.15142	-982.76596	852.92061	343.83183	-1080.89142	875.59319	730.79605	-1054.35493	891.19019	393.74466	-1032.68471	452.46258	637.19334	-1139.02931	484.46018	684.84871	-1123.28430	485.37788	567.02137	-1018.14560	465.94059	508.27393	-1104.08936	479.16348	412.91084	-1125.41344	478.11558	536.53835	-1099.67606	164.84360	659.92813	-1135.56664	161.51625	595.62050	-1180.99892	152.33506	666.02615	-1069.83231	166.10085	457.72854	-1130.25810	166.97571	421.56303	-1129.13773	172.55781	510.80021 
